# xmcd
#
# Track frame offsets:
#	150
#	19805
#	38317
#	55826
#	74805
#	94989
#	108680
#	125492
#	137625
#	155535
#	168149
#	179063
#	203865
#	216748
#	229473
#
# Disc length: 3267 seconds
# Revision: 0
# Processed by: cddbd v1.5.2PL0 Copyright (c) Steve Scherf et al.
# Submitted via: dBpowerAMP V12.0
#
DISCID=e60cc10f
DTITLE=50 Shades Of Hay - 50 Shades Of Hay
DYEAR=2016
DGENRE=Country
TTITLE0=Stop Don't Stop
TTITLE1=Rose Colored Glasses
TTITLE2=Bonaparte's Retreat
TTITLE3=Too Much Vodka
TTITLE4=One Prayer Left
TTITLE5=End Of The Line
TTITLE6=Yodeling In My Sleep
TTITLE7=Girl I Left Behind Me
TTITLE8=Sweet Dreams (Of You)
TTITLE9=Low And Lonely
TTITLE10=That's Why I'm Walking
TTITLE11=There Is A Time
TTITLE12=Crazy Over You
TTITLE13=Looking Over My Shoulder
TTITLE14=San Jose Rose
EXTD=
EXTT0=
EXTT1=
EXTT2=
EXTT3=
EXTT4=
EXTT5=
EXTT6=
EXTT7=
EXTT8=
EXTT9=
EXTT10=
EXTT11=
EXTT12=
EXTT13=
EXTT14=
PLAYORDER=
